<svg xmlns="http://www.w3.org/2000/svg" viewBox="0 0 24 24" fill="currentColor">
  <path d="M12 .5C5.4.5 0 5.9 0 12.5c0 5.3 3.4 9.8 8.1 11.4.6.1.8-.3.8-.6v-2.1c-3.3.7-4-1.6-4-1.6-.6-1.6-1.5-2-1.5-2-1.2-.8.1-.8.1-.8 1.3.1 2 1.3 2 1.3 1.1 1.9 2.9 1.4 3.6 1.1.1-.9.4-1.4.8-1.7-2.6-.3-5.4-1.3-5.4-5.9 0-1.3.5-2.3 1.3-3.1-.1-.3-.6-1.5.1-3.1 0 0 1-.3 3.3 1.2.9-.3 1.9-.4 2.9-.4s2 .1 2.9.4c2.3-1.5 3.3-1.2 3.3-1.2.7 1.6.2 2.8.1 3.1.8.8 1.3 1.8 1.3 3.1 0 4.6-2.8 5.6-5.5 5.9.4.3.8 1 .8 2v3c0 .3.2.7.8.6C20.6 22.3 24 17.8 24 12.5 24 5.9 18.6.5 12 .5z"/>
</svg>
